<svg version="1.1" id="Icons" xmlns="http://www.w3.org/2000/svg" x="0" y="0" viewBox="0 0 32 32" style="enable-background:new 0 0 32 32" xml:space="preserve"><path d="M29.5 14.1c-.3-.2-.7-.2-1 0l-4.6 2.3C23.7 15 22.5 14 21 14H7c-1.7 0-3 1.3-3 3v6c0 1.7 1.3 3 3 3h5.1l-3 4.4c-.3.5-.2 1.1.3 1.4.5.3 1.1.2 1.4-.3l3.2-4.8 3.2 4.8c.2.3.5.4.8.4.2 0 .4-.1.6-.2.5-.3.6-.9.3-1.4l-3-4.4H21c1.5 0 2.7-1 2.9-2.4l4.6 2.3c.2.2.3.2.5.2s.4-.1.5-.1c.3-.2.5-.5.5-.9V15c0-.3-.2-.7-.5-.9zM19 1c-2.1 0-3.9 1.1-5 2.7C12.9 2.1 11.1 1 9 1 5.7 1 3 3.7 3 7s2.7 6 6 6c2.1 0 3.9-1.1 5-2.7 1.1 1.6 2.9 2.7 5 2.7 3.3 0 6-2.7 6-6s-2.7-6-6-6zM9 9c-1.1 0-2-.9-2-2s.9-2 2-2 2 .9 2 2-.9 2-2 2zm10 0c-1.1 0-2-.9-2-2s.9-2 2-2 2 .9 2 2-.9 2-2 2z" fill="gold"/></svg>