<svg width="24" height="24" viewBox="0 0 24 24" fill="none" xmlns="http://www.w3.org/2000/svg">
<path d="M12.6452 2.66699C11.0822 2.66699 9.84176 3.93633 9.84176 5.58497C9.84176 6.54443 9.04426 8.0695 8.15738 8.83185C7.51062 9.38774 6.09615 9.82118 3.95021 10.0713L3.87843 10.0814C3.54242 10.1385 3.23685 10.318 3.01628 10.5877C2.79572 10.8575 2.6745 11.2 2.67427 11.5542L2.66925 19.7451L2.66817 19.7507C2.66458 19.7769 2.66602 19.8004 2.66853 19.8344L2.67033 19.909C2.68866 20.2918 2.84779 20.6525 3.11476 20.9166C3.38174 21.1807 3.73612 21.3279 4.10454 21.3277L16.9769 21.3307L16.9841 21.3318C17.0017 21.3329 17.0197 21.3337 17.0376 21.3337C17.5731 21.3337 18.1011 21.1769 18.5608 20.8737L18.6595 20.8065C19.0149 20.5501 19.3084 20.2116 19.517 19.8176L19.5507 19.7504L19.5163 19.8052C19.6139 19.663 19.6849 19.5028 19.7287 19.3326L21.2864 12.1818L21.3026 12.1108C21.3219 12.0126 21.3313 11.9018 21.3284 11.7886L21.327 11.7648L21.3245 11.8189C21.3706 11.1941 21.2216 10.5706 20.8995 10.0411L20.8446 9.95222C20.3583 9.19584 19.5615 8.72544 18.6933 8.65712L18.6369 8.65339L18.6154 8.6504C18.5626 8.64368 18.5095 8.64031 18.4564 8.64032L15.3977 8.63808L15.4365 8.44432C15.5372 7.90355 15.5878 7.35398 15.5876 6.80315C15.5876 6.17969 15.5194 5.55734 15.3884 4.93649L15.3737 4.8775C15.368 4.85807 15.3615 4.83889 15.3543 4.82001L15.3443 4.79723L15.3299 4.74347C15.156 4.14341 14.8011 3.6175 14.3176 3.24354C13.8341 2.86958 13.2477 2.66743 12.6452 2.66699Z" fill="#61C277"></path>
<path d="M6.66536 14.0441V17.9552C6.66536 18.1438 6.59513 18.3247 6.4701 18.4581C6.34508 18.5914 6.17551 18.6663 5.9987 18.6663H5.33203V13.333H5.9987C6.08625 13.333 6.17294 13.3514 6.25382 13.3871C6.3347 13.4229 6.4082 13.4753 6.4701 13.5413C6.53201 13.6073 6.58111 13.6857 6.61462 13.772C6.64812 13.8583 6.66536 13.9507 6.66536 14.0441Z" fill="white" fill-opacity="0.5"></path>
</svg>
