<svg width="24" height="24" fill="none" xmlns="http://www.w3.org/2000/svg"><path d="M12.645 2.667c-1.563 0-2.803 1.27-2.803 2.918 0 .96-.798 2.484-1.685 3.247-.646.556-2.06.99-4.207 1.24l-.072.01a1.423 1.423 0 0 0-.862.506 1.53 1.53 0 0 0-.342.966l-.005 8.191v.006a.384.384 0 0 0 0 .083l.001.075c.019.383.178.744.445 1.008s.621.41.99.41l12.872.004h.007a2.762 2.762 0 0 0 1.577-.458l.099-.067c.355-.256.648-.594.857-.988l.034-.068-.035.055a1.49 1.49 0 0 0 .213-.472l1.557-7.151.017-.071c.019-.098.028-.21.025-.322l-.001-.024-.003.054a3 3 0 0 0-.425-1.778l-.054-.089a2.82 2.82 0 0 0-2.152-1.295l-.056-.004-.022-.003a1.257 1.257 0 0 0-.159-.01l-3.058-.002.039-.194a8.948 8.948 0 0 0-.049-3.508l-.014-.058a.769.769 0 0 0-.02-.058l-.01-.023-.014-.054a2.92 2.92 0 0 0-1.012-1.5 2.735 2.735 0 0 0-1.673-.576Z" fill="#61C277"/><path d="M6.665 14.044v3.911c0 .189-.07.37-.195.503a.646.646 0 0 1-.471.208h-.667v-5.333h.667c.087 0 .174.018.255.054.08.036.154.088.216.154a.752.752 0 0 1 .195.503Z" fill="#fff" fill-opacity=".5"/></svg>