<svg width="24" height="24" viewBox="0 0 24 24" fill="none" xmlns="http://www.w3.org/2000/svg">
<path d="M11.3548 21.3335C12.9178 21.3335 14.1582 20.0642 14.1582 18.4155C14.1582 17.4561 14.9557 15.931 15.8426 15.1686C16.4894 14.6128 17.9039 14.1793 20.0498 13.9292L20.1216 13.9191C20.4576 13.862 20.7631 13.6825 20.9837 13.4128C21.2043 13.143 21.3255 12.8004 21.3257 12.4463L21.3307 4.25536L21.3318 4.24976C21.3354 4.22363 21.334 4.20011 21.3315 4.16614L21.3297 4.09147C21.3113 3.70872 21.1522 3.34797 20.8852 3.08388C20.6183 2.8198 20.2639 2.67262 19.8955 2.6728L7.02305 2.66982L7.01587 2.6687C6.99829 2.66758 6.98034 2.66683 6.9624 2.66683C6.4269 2.66683 5.89894 2.82363 5.43917 3.12678L5.34047 3.19398C4.9851 3.45036 4.69162 3.78886 4.48303 4.18294L4.44929 4.25014L4.48375 4.19526C4.38612 4.3375 4.31506 4.49766 4.27127 4.6679L2.71359 11.8187L2.69744 11.8897C2.67806 11.9878 2.66872 12.0987 2.67159 12.2118L2.67303 12.2357L2.67554 12.1816C2.62938 12.8064 2.77842 13.4299 3.1005 13.9594L3.15541 14.0483C3.64174 14.8046 4.43852 15.275 5.30673 15.3434L5.36308 15.3471L5.38462 15.3501C5.43737 15.3568 5.49047 15.3602 5.54362 15.3602L8.60227 15.3624L8.56351 15.5562C8.4628 16.0969 8.4122 16.6465 8.4124 17.1973C8.4124 17.8208 8.4806 18.4432 8.6116 19.064L8.62632 19.123C8.63202 19.1424 8.63849 19.1616 8.6457 19.1805L8.65575 19.2033L8.6701 19.257C8.84397 19.8571 9.1989 20.383 9.68239 20.7569C10.1659 21.1309 10.7523 21.3331 11.3548 21.3335Z" fill="#CF3740"></path>
<path d="M17.3346 9.95588L17.3346 6.04477C17.3346 5.85617 17.4049 5.6753 17.5299 5.54194C17.6549 5.40858 17.8245 5.33366 18.0013 5.33366L18.668 5.33366L18.668 10.667L18.0013 10.667C17.9138 10.667 17.8271 10.6486 17.7462 10.6129C17.6653 10.5771 17.5918 10.5247 17.5299 10.4587C17.468 10.3927 17.4189 10.3143 17.3854 10.228C17.3519 10.1417 17.3346 10.0493 17.3346 9.95588Z" fill="white" fill-opacity="0.5"></path>
</svg>
