<svg width="24" height="24" fill="none" xmlns="http://www.w3.org/2000/svg"><path d="M11.355 21.334c1.563 0 2.803-1.27 2.803-2.918 0-.96.798-2.485 1.685-3.247.646-.556 2.06-.99 4.207-1.24l.072-.01c.336-.057.641-.237.862-.506.22-.27.341-.613.342-.967l.005-8.19V4.25a.383.383 0 0 0 0-.084l-.001-.075a1.52 1.52 0 0 0-.445-1.007 1.406 1.406 0 0 0-.99-.411L7.023 2.67l-.007-.001a2.762 2.762 0 0 0-1.577.458l-.099.067a2.877 2.877 0 0 0-.857.989l-.034.067.035-.055a1.489 1.489 0 0 0-.213.473l-1.557 7.15-.017.072c-.019.098-.028.209-.025.322l.001.024.003-.054a3 3 0 0 0 .424 1.777l.055.09a2.82 2.82 0 0 0 2.152 1.294l.056.004.022.003c.052.007.105.01.159.01l3.058.002-.038.194a8.947 8.947 0 0 0 .048 3.508l.014.059c.006.02.012.039.02.057l.01.023.014.054a2.92 2.92 0 0 0 1.012 1.5c.484.374 1.07.576 1.673.576Z" fill="#CF3740"/><path d="M17.335 9.956V6.045c0-.189.07-.37.195-.503A.646.646 0 0 1 18 5.334h.667v5.333h-.667a.631.631 0 0 1-.471-.208.752.752 0 0 1-.195-.503Z" fill="#fff" fill-opacity=".5"/></svg>